<svg width="100" height="105" viewBox="0 0 100 105" fill="none" xmlns="http://www.w3.org/2000/svg">
<rect width="5" height="5" transform="matrix(-1 0 0 1 90 0)" fill="#20262D"/>
<rect width="5" height="5" transform="matrix(-1 0 0 1 90 5)" fill="#20262D"/>
<rect width="5" height="5" transform="matrix(-1 0 0 1 95 10)" fill="#20262D"/>
<rect width="5" height="5" transform="matrix(-1 0 0 1 95 15)" fill="#20262D"/>
<rect width="5" height="5" transform="matrix(-1 0 0 1 100 15)" fill="#20262D"/>
<rect width="5" height="5" transform="matrix(-1 0 0 1 100 20)" fill="#20262D"/>
<rect width="5" height="5" transform="matrix(-1 0 0 1 100 25)" fill="#20262D"/>
<rect width="5" height="5" transform="matrix(-1 0 0 1 100 30)" fill="#20262D"/>
<rect width="5" height="5" transform="matrix(-1 0 0 1 100 35)" fill="#20262D"/>
<rect width="5" height="5" transform="matrix(-1 0 0 1 95 40)" fill="#20262D"/>
<rect width="5" height="5" transform="matrix(-1 0 0 1 90 45)" fill="#20262D"/>
<rect width="5" height="5" transform="matrix(-1 0 0 1 85 50)" fill="#20262D"/>
<rect width="5" height="5" transform="matrix(-1 0 0 1 85 55)" fill="#20262D"/>
<rect width="5" height="5" transform="matrix(-1 0 0 1 85 60)" fill="#20262D"/>
<rect width="5" height="5" transform="matrix(-1 0 0 1 85 70)" fill="#20262D"/>
<rect width="5" height="5" transform="matrix(-1 0 0 1 85 65)" fill="#20262D"/>
<rect width="5" height="5" transform="matrix(-1 0 0 1 85 75)" fill="#20262D"/>
<rect width="5" height="5" transform="matrix(-1 0 0 1 85 80)" fill="#20262D"/>
<rect width="5" height="5" transform="matrix(-1 0 0 1 85 85)" fill="#20262D"/>
<rect width="5" height="5" transform="matrix(-1 0 0 1 75 85)" fill="#EEA65B"/>
<rect width="5" height="5" transform="matrix(-1 0 0 1 80 85)" fill="#EEA65B"/>
<rect width="5" height="5" transform="matrix(-1 0 0 1 75 80)" fill="#A03A22"/>
<rect width="5" height="5" transform="matrix(-1 0 0 1 80 80)" fill="#A03A22"/>
<rect width="5" height="5" transform="matrix(-1 0 0 1 75 50)" fill="#EB5C2C"/>
<rect width="5" height="5" transform="matrix(-1 0 0 1 70 55)" fill="#A03A22"/>
<rect width="5" height="5" transform="matrix(-1 0 0 1 65 55)" fill="#A03A22"/>
<rect width="5" height="5" transform="matrix(-1 0 0 1 60 50)" fill="#A03A22"/>
<rect width="5" height="5" transform="matrix(-1 0 0 1 65 85)" fill="#EEA65B"/>
<rect width="5" height="5" transform="matrix(-1 0 0 1 65 80)" fill="#A03A22"/>
<rect width="5" height="5" transform="matrix(-1 0 0 1 50 85)" fill="#EEA65B"/>
<rect width="5" height="5" transform="matrix(-1 0 0 1 30 95)" fill="#EEA65B"/>
<rect width="5" height="5" transform="matrix(-1 0 0 1 25 90)" fill="#EB5C2C"/>
<rect width="5" height="5" transform="matrix(-1 0 0 1 30 85)" fill="#EB5C2C"/>
<rect width="5" height="5" transform="matrix(-1 0 0 1 30 80)" fill="#EB5C2C"/>
<rect width="5" height="5" transform="matrix(-1 0 0 1 30 75)" fill="#EB5C2C"/>
<rect width="5" height="5" transform="matrix(-1 0 0 1 35 80)" fill="#EB5C2C"/>
<rect width="5" height="5" transform="matrix(-1 0 0 1 35 75)" fill="#EB5C2C"/>
<rect width="5" height="5" transform="matrix(-1 0 0 1 40 75)" fill="#EB5C2C"/>
<rect width="5" height="5" transform="matrix(-1 0 0 1 50 75)" fill="#EB5C2C"/>
<rect width="5" height="5" transform="matrix(-1 0 0 1 60 70)" fill="#EB5C2C"/>
<rect width="5" height="5" transform="matrix(-1 0 0 1 50 70)" fill="#EB5C2C"/>
<rect width="5" height="5" transform="matrix(-1 0 0 1 45 70)" fill="#EB5C2C"/>
<rect width="5" height="5" transform="matrix(-1 0 0 1 45 65)" fill="#EB5C2C"/>
<rect width="5" height="5" transform="matrix(-1 0 0 1 55 65)" fill="#EB5C2C"/>
<rect width="5" height="5" transform="matrix(-1 0 0 1 65 65)" fill="#EB5C2C"/>
<rect width="5" height="5" transform="matrix(-1 0 0 1 70 50)" fill="#EB5C2C"/>
<rect width="5" height="5" transform="matrix(-1 0 0 1 65 50)" fill="#EB5C2C"/>
<rect width="5" height="5" transform="matrix(-1 0 0 1 85 45)" fill="#EB5C2C"/>
<rect width="5" height="5" transform="matrix(-1 0 0 1 85 40)" fill="#EB5C2C"/>
<rect width="5" height="5" transform="matrix(-1 0 0 1 85 35)" fill="#EB5C2C"/>
<rect width="5" height="5" transform="matrix(-1 0 0 1 80 35)" fill="#EB5C2C"/>
<rect width="5" height="5" transform="matrix(-1 0 0 1 90 40)" fill="#EB5C2C"/>
<rect width="5" height="5" transform="matrix(-1 0 0 1 80 45)" fill="#EB5C2C"/>
<rect width="5" height="5" transform="matrix(-1 0 0 1 75 45)" fill="#EB5C2C"/>
<rect width="5" height="5" transform="matrix(-1 0 0 1 60 55)" fill="#EEA65B"/>
<rect width="5" height="5" transform="matrix(-1 0 0 1 55 45)" fill="#EB5C2C"/>
<rect width="5" height="5" transform="matrix(-1 0 0 1 55 40)" fill="#EB5C2C"/>
<rect width="5" height="5" transform="matrix(-1 0 0 1 55 35)" fill="#EB5C2C"/>
<rect width="5" height="5" transform="matrix(-1 0 0 1 90 30)" fill="#EB5C2C"/>
<rect width="5" height="5" transform="matrix(-1 0 0 1 75 30)" fill="#EB5C2C"/>
<rect width="5" height="5" transform="matrix(-1 0 0 1 90 25)" fill="#EB5C2C"/>
<rect width="5" height="5" transform="matrix(-1 0 0 1 95 20)" fill="#EB5C2C"/>
<rect width="5" height="5" transform="matrix(-1 0 0 1 60 45)" fill="#EB5C2C"/>
<rect width="5" height="5" transform="matrix(-1 0 0 1 65 45)" fill="#EB5C2C"/>
<rect width="5" height="5" transform="matrix(-1 0 0 1 70 45)" fill="#EB5C2C"/>
<rect width="5" height="5" transform="matrix(-1 0 0 1 70 40)" fill="#EB5C2C"/>
<rect width="5" height="5" transform="matrix(-1 0 0 1 75 40)" fill="#20262D"/>
<rect width="5" height="5" transform="matrix(-1 0 0 1 70 35)" fill="#20262D"/>
<rect width="5" height="5" transform="matrix(-1 0 0 1 65 40)" fill="#20262D"/>
<rect width="5" height="5" transform="matrix(-1 0 0 1 50 45)" fill="#EB5C2C"/>
<rect width="5" height="5" transform="matrix(-1 0 0 1 50 40)" fill="#EB5C2C"/>
<rect width="5" height="5" transform="matrix(-1 0 0 1 50 35)" fill="#EEA65B"/>
<rect width="5" height="5" transform="matrix(-1 0 0 1 95 35)" fill="#EEA65B"/>
<rect width="5" height="5" transform="matrix(-1 0 0 1 50 30)" fill="#EB5C2C"/>
<rect width="5" height="5" transform="matrix(-1 0 0 1 70 30)" fill="#FBAE95"/>
<rect width="5" height="5" transform="matrix(-1 0 0 1 65 25)" fill="#EB5C2C"/>
<rect width="5" height="5" transform="matrix(-1 0 0 1 70 25)" fill="#EB5C2C"/>
<rect width="5" height="5" transform="matrix(-1 0 0 1 75 25)" fill="#EB5C2C"/>
<rect width="5" height="5" transform="matrix(-1 0 0 1 90 20)" fill="#EB5C2C"/>
<rect width="5" height="5" transform="matrix(-1 0 0 1 50 20)" fill="#EB5C2C"/>
<rect width="5" height="5" transform="matrix(-1 0 0 1 50 25)" fill="#EB5C2C"/>
<rect width="5" height="5" transform="matrix(-1 0 0 1 45 40)" fill="#EB5C2C"/>
<rect width="5" height="5" transform="matrix(-1 0 0 1 45 35)" fill="#EEA65B"/>
<rect width="5" height="5" transform="matrix(-1 0 0 1 90 35)" fill="#EEA65B"/>
<rect width="5" height="5" transform="matrix(-1 0 0 1 45 25)" fill="#EEA65B"/>
<rect width="5" height="5" transform="matrix(-1 0 0 1 95 25)" fill="#EEA65B"/>
<rect width="5" height="5" transform="matrix(-1 0 0 1 45 30)" fill="#EB5C2C"/>
<rect width="5" height="5" transform="matrix(-1 0 0 1 65 30)" fill="#EB5C2C"/>
<rect width="5" height="5" transform="matrix(-1 0 0 1 80 30)" fill="#20262D"/>
<rect width="5" height="5" transform="matrix(-1 0 0 1 60 30)" fill="#20262D"/>
<rect width="5" height="5" transform="matrix(-1 0 0 1 70 20)" fill="#EB5C2C"/>
<rect width="5" height="5" transform="matrix(-1 0 0 1 70 15)" fill="#EB5C2C"/>
<rect width="5" height="5" transform="matrix(-1 0 0 1 65 15)" fill="#EB5C2C"/>
<rect width="5" height="5" transform="matrix(-1 0 0 1 60 15)" fill="#EB5C2C"/>
<rect width="5" height="5" transform="matrix(-1 0 0 1 60 20)" fill="#EB5C2C"/>
<rect width="5" height="5" transform="matrix(-1 0 0 1 55 15)" fill="#EB5C2C"/>
<rect width="5" height="5" transform="matrix(-1 0 0 1 55 10)" fill="#FBAE95"/>
<rect width="5" height="5" transform="matrix(-1 0 0 1 80 10)" fill="#FBAE95"/>
<rect width="5" height="5" transform="matrix(-1 0 0 1 85 10)" fill="#FBAE95"/>
<rect width="5" height="5" transform="matrix(-1 0 0 1 85 5)" fill="#FBAE95"/>
<rect width="5" height="5" transform="matrix(-1 0 0 1 90 10)" fill="#FBAE95"/>
<rect width="5" height="5" transform="matrix(-1 0 0 1 90 15)" fill="#FBAE95"/>
<rect width="5" height="5" transform="matrix(-1 0 0 1 50 5)" fill="#FBAE95"/>
<rect width="5" height="5" transform="matrix(-1 0 0 1 50 10)" fill="#FBAE95"/>
<rect width="5" height="5" transform="matrix(-1 0 0 1 45 10)" fill="#FBAE95"/>
<rect width="5" height="5" transform="matrix(-1 0 0 1 50 15)" fill="#FBAE95"/>
<rect width="5" height="5" transform="matrix(-1 0 0 1 45 15)" fill="#FBAE95"/>
<rect width="5" height="5" transform="matrix(-1 0 0 1 60 25)" fill="white"/>
<rect width="5" height="5" transform="matrix(-1 0 0 1 80 25)" fill="white"/>
<rect width="5" height="5" transform="matrix(-1 0 0 1 55 20)" fill="#EB5C2C"/>
<rect width="5" height="5" transform="matrix(-1 0 0 1 65 20)" fill="#EB5C2C"/>
<rect width="5" height="5" transform="matrix(-1 0 0 1 55 25)" fill="#20262D"/>
<rect width="5" height="5" transform="matrix(-1 0 0 1 55 30)" fill="#20262D"/>
<rect width="5" height="5" transform="matrix(-1 0 0 1 85 30)" fill="#20262D"/>
<rect width="5" height="5" transform="matrix(-1 0 0 1 75 20)" fill="#EB5C2C"/>
<rect width="5" height="5" transform="matrix(-1 0 0 1 85 25)" fill="#20262D"/>
<rect width="5" height="5" transform="matrix(-1 0 0 1 75 15)" fill="#EB5C2C"/>
<rect width="5" height="5" transform="matrix(-1 0 0 1 80 15)" fill="#EB5C2C"/>
<rect width="5" height="5" transform="matrix(-1 0 0 1 80 20)" fill="#EB5C2C"/>
<rect width="5" height="5" transform="matrix(-1 0 0 1 85 15)" fill="#EB5C2C"/>
<rect width="5" height="5" transform="matrix(-1 0 0 1 85 20)" fill="#EB5C2C"/>
<rect width="5" height="5" transform="matrix(-1 0 0 1 45 20)" fill="#EB5C2C"/>
<rect width="5" height="5" transform="matrix(-1 0 0 1 40 35)" fill="#EEA65B"/>
<rect width="5" height="5" transform="matrix(-1 0 0 1 40 25)" fill="#EEA65B"/>
<rect width="5" height="5" transform="matrix(-1 0 0 1 40 30)" fill="#EB5C2C"/>
<rect width="5" height="5" transform="matrix(-1 0 0 1 40 20)" fill="#EB5C2C"/>
<rect width="5" height="5" transform="matrix(-1 0 0 1 95 30)" fill="#EB5C2C"/>
<rect width="5" height="5" transform="matrix(-1 0 0 1 75 65)" fill="#EB5C2C"/>
<rect width="5" height="5" transform="matrix(-1 0 0 1 45 60)" fill="#EEA65B"/>
<rect width="5" height="5" transform="matrix(-1 0 0 1 40 60)" fill="#EB5C2C"/>
<rect width="5" height="5" transform="matrix(-1 0 0 1 40 55)" fill="#EEA65B"/>
<rect width="5" height="5" transform="matrix(-1 0 0 1 65 35)" fill="#EEA65B"/>
<rect width="5" height="5" transform="matrix(-1 0 0 1 60 40)" fill="#EEA65B"/>
<rect width="5" height="5" transform="matrix(-1 0 0 1 60 35)" fill="#EEA65B"/>
<rect width="5" height="5" transform="matrix(-1 0 0 1 75 35)" fill="#EEA65B"/>
<rect width="5" height="5" transform="matrix(-1 0 0 1 80 40)" fill="#EEA65B"/>
<rect width="5" height="5" transform="matrix(-1 0 0 1 50 55)" fill="#EB5C2C"/>
<rect width="5" height="5" transform="matrix(-1 0 0 1 50 60)" fill="#EB5C2C"/>
<rect width="5" height="5" transform="matrix(-1 0 0 1 55 60)" fill="#EB5C2C"/>
<rect width="5" height="5" transform="matrix(-1 0 0 1 50 65)" fill="#EB5C2C"/>
<rect width="5" height="5" transform="matrix(-1 0 0 1 60 65)" fill="#EB5C2C"/>
<rect width="5" height="5" transform="matrix(-1 0 0 1 80 65)" fill="#EB5C2C"/>
<rect width="5" height="5" transform="matrix(-1 0 0 1 80 60)" fill="#EB5C2C"/>
<rect width="5" height="5" transform="matrix(-1 0 0 1 40 70)" fill="#EB5C2C"/>
<rect width="5" height="5" transform="matrix(-1 0 0 1 35 65)" fill="#EEA65B"/>
<rect width="5" height="5" transform="matrix(-1 0 0 1 35 70)" fill="#EEA65B"/>
<rect width="5" height="5" transform="matrix(-1 0 0 1 30 70)" fill="#EB5C2C"/>
<rect width="5" height="5" transform="matrix(-1 0 0 1 30 65)" fill="#EEA65B"/>
<rect width="5" height="5" transform="matrix(-1 0 0 1 60 75)" fill="#EB5C2C"/>
<rect width="5" height="5" transform="matrix(-1 0 0 1 65 75)" fill="#EB5C2C"/>
<rect width="5" height="5" transform="matrix(-1 0 0 1 65 70)" fill="#EB5C2C"/>
<rect width="5" height="5" transform="matrix(-1 0 0 1 75 75)" fill="#EB5C2C"/>
<rect width="5" height="5" transform="matrix(-1 0 0 1 80 75)" fill="#EB5C2C"/>
<rect width="5" height="5" transform="matrix(-1 0 0 1 75 70)" fill="#EB5C2C"/>
<rect width="5" height="5" transform="matrix(-1 0 0 1 80 70)" fill="#EEA65B"/>
<rect width="5" height="5" transform="matrix(-1 0 0 1 55 70)" fill="#EEA65B"/>
<rect width="5" height="5" transform="matrix(-1 0 0 1 35 60)" fill="#EB5C2C"/>
<rect width="5" height="5" transform="matrix(-1 0 0 1 40 65)" fill="#EB5C2C"/>
<rect width="5" height="5" transform="matrix(-1 0 0 1 45 50)" fill="#EB5C2C"/>
<rect width="5" height="5" transform="matrix(-1 0 0 1 45 55)" fill="#EB5C2C"/>
<rect width="5" height="5" transform="matrix(-1 0 0 1 55 55)" fill="#EEA65B"/>
<rect width="5" height="5" transform="matrix(-1 0 0 1 60 60)" fill="#EEA65B"/>
<rect width="5" height="5" transform="matrix(-1 0 0 1 65 60)" fill="#EEA65B"/>
<rect width="5" height="5" transform="matrix(-1 0 0 1 70 60)" fill="#EEA65B"/>
<rect width="5" height="5" transform="matrix(-1 0 0 1 70 65)" fill="#EEA65B"/>
<rect width="5" height="5" transform="matrix(-1 0 0 1 75 60)" fill="#EEA65B"/>
<rect width="5" height="5" transform="matrix(-1 0 0 1 75 55)" fill="#A03A22"/>
<rect width="5" height="5" transform="matrix(-1 0 0 1 80 55)" fill="#EEA65B"/>
<rect width="5" height="5" transform="matrix(-1 0 0 1 25 95)" fill="#EB5C2C"/>
<rect width="5" height="5" transform="matrix(-1 0 0 1 20 90)" fill="#EB5C2C"/>
<rect width="5" height="5" transform="matrix(-1 0 0 1 15 90)" fill="#EB5C2C"/>
<rect width="5" height="5" transform="matrix(-1 0 0 1 15 85)" fill="#EB5C2C"/>
<rect width="5" height="5" transform="matrix(-1 0 0 1 15 80)" fill="#EB5C2C"/>
<rect width="5" height="5" transform="matrix(-1 0 0 1 20 80)" fill="#EB5C2C"/>
<rect width="5" height="5" transform="matrix(-1 0 0 1 35 95)" fill="#EEA65B"/>
<rect width="5" height="5" transform="matrix(-1 0 0 1 60 85)" fill="#EEA65B"/>
<rect width="5" height="5" transform="matrix(-1 0 0 1 60 80)" fill="#A03A22"/>
<rect width="5" height="5" transform="matrix(-1 0 0 1 35 85)" fill="#A03A22"/>
<rect width="5" height="5" transform="matrix(-1 0 0 1 40 80)" fill="#A03A22"/>
<rect width="5" height="5" transform="matrix(-1 0 0 1 45 85)" fill="#EEA65B"/>
<rect width="5" height="5" transform="matrix(-1 0 0 1 40 85)" fill="#EEA65B"/>
<rect width="5" height="5" transform="matrix(-1 0 0 1 80 90)" fill="#20262D"/>
<rect width="5" height="5" transform="matrix(-1 0 0 1 85 90)" fill="#20262D"/>
<rect width="5" height="5" transform="matrix(-1 0 0 1 75 90)" fill="#20262D"/>
<rect width="5" height="5" transform="matrix(-1 0 0 1 70 90)" fill="#20262D"/>
<rect width="5" height="5" transform="matrix(-1 0 0 1 65 90)" fill="#20262D"/>
<rect width="5" height="5" transform="matrix(-1 0 0 1 60 90)" fill="#20262D"/>
<rect width="5" height="5" transform="matrix(-1 0 0 1 55 90)" fill="#20262D"/>
<rect width="5" height="5" transform="matrix(-1 0 0 1 50 90)" fill="#20262D"/>
<rect width="5" height="5" transform="matrix(-1 0 0 1 40 90)" fill="#20262D"/>
<rect width="5" height="5" transform="matrix(-1 0 0 1 35 90)" fill="#20262D"/>
<rect width="5" height="5" transform="matrix(-1 0 0 1 30 90)" fill="#20262D"/>
<rect width="5" height="5" transform="matrix(-1 0 0 1 55 85)" fill="#20262D"/>
<rect width="5" height="5" transform="matrix(-1 0 0 1 55 80)" fill="#20262D"/>
<rect width="5" height="5" transform="matrix(-1 0 0 1 50 80)" fill="#20262D"/>
<rect width="5" height="5" transform="matrix(-1 0 0 1 45 80)" fill="#20262D"/>
<rect width="5" height="5" transform="matrix(-1 0 0 1 45 75)" fill="#20262D"/>
<rect width="5" height="5" transform="matrix(-1 0 0 1 55 75)" fill="#20262D"/>
<rect width="5" height="5" transform="matrix(-1 0 0 1 70 85)" fill="#20262D"/>
<rect width="5" height="5" transform="matrix(-1 0 0 1 70 80)" fill="#20262D"/>
<rect width="5" height="5" transform="matrix(-1 0 0 1 70 75)" fill="#20262D"/>
<rect width="5" height="5" transform="matrix(-1 0 0 1 70 70)" fill="#20262D"/>
<rect width="5" height="5" transform="matrix(-1 0 0 1 80 50)" fill="#A03A22"/>
<rect width="5" height="5" transform="matrix(-1 0 0 1 85 0)" fill="#20262D"/>
<rect width="5" height="5" transform="matrix(-1 0 0 1 80 5)" fill="#20262D"/>
<rect width="5" height="5" transform="matrix(-1 0 0 1 75 10)" fill="#20262D"/>
<rect width="5" height="5" transform="matrix(-1 0 0 1 70 10)" fill="#20262D"/>
<rect width="5" height="5" transform="matrix(-1 0 0 1 65 10)" fill="#20262D"/>
<rect width="5" height="5" transform="matrix(-1 0 0 1 60 10)" fill="#20262D"/>
<rect width="5" height="5" transform="matrix(-1 0 0 1 55 5)" fill="#20262D"/>
<rect width="5" height="5" transform="matrix(-1 0 0 1 50 0)" fill="#20262D"/>
<rect width="5" height="5" transform="matrix(-1 0 0 1 45 0)" fill="#20262D"/>
<rect width="5" height="5" transform="matrix(-1 0 0 1 45 5)" fill="#20262D"/>
<rect width="5" height="5" transform="matrix(-1 0 0 1 40 10)" fill="#20262D"/>
<rect width="5" height="5" transform="matrix(-1 0 0 1 40 15)" fill="#20262D"/>
<rect width="5" height="5" transform="matrix(-1 0 0 1 35 20)" fill="#20262D"/>
<rect width="5" height="5" transform="matrix(-1 0 0 1 35 25)" fill="#20262D"/>
<rect width="5" height="5" transform="matrix(-1 0 0 1 35 30)" fill="#20262D"/>
<rect width="5" height="5" transform="matrix(-1 0 0 1 35 35)" fill="#20262D"/>
<rect width="5" height="5" transform="matrix(-1 0 0 1 40 40)" fill="#20262D"/>
<rect width="5" height="5" transform="matrix(-1 0 0 1 45 45)" fill="#20262D"/>
<rect width="5" height="5" transform="matrix(-1 0 0 1 40 50)" fill="#20262D"/>
<rect width="5" height="5" transform="matrix(-1 0 0 1 35 55)" fill="#20262D"/>
<rect width="5" height="5" transform="matrix(-1 0 0 1 30 60)" fill="#20262D"/>
<rect width="5" height="5" transform="matrix(-1 0 0 1 25 65)" fill="#20262D"/>
<rect width="5" height="5" transform="matrix(-1 0 0 1 25 70)" fill="#20262D"/>
<rect width="5" height="5" transform="matrix(-1 0 0 1 25 75)" fill="#20262D"/>
<rect width="5" height="5" transform="matrix(-1 0 0 1 20 75)" fill="#20262D"/>
<rect width="5" height="5" transform="matrix(-1 0 0 1 25 80)" fill="#20262D"/>
<rect width="5" height="5" transform="matrix(-1 0 0 1 25 85)" fill="#20262D"/>
<rect width="5" height="5" transform="matrix(-1 0 0 1 20 85)" fill="#20262D"/>
<rect width="5" height="5" transform="matrix(-1 0 0 1 15 75)" fill="#20262D"/>
<rect width="5" height="5" transform="matrix(-1 0 0 1 10 80)" fill="#20262D"/>
<rect width="5" height="5" transform="matrix(-1 0 0 1 10 85)" fill="#20262D"/>
<rect width="5" height="5" transform="matrix(-1 0 0 1 10 90)" fill="#20262D"/>
<rect width="5" height="5" transform="matrix(-1 0 0 1 15 95)" fill="#20262D"/>
<rect width="5" height="5" transform="matrix(-1 0 0 1 20 95)" fill="#20262D"/>
<rect width="5" height="5" transform="matrix(-1 0 0 1 25 100)" fill="#20262D"/>
<rect width="5" height="5" transform="matrix(-1 0 0 1 10 100)" fill="#20262D"/>
<rect width="5" height="5" transform="matrix(-1 0 0 1 45 100)" fill="#20262D"/>
<rect width="5" height="5" transform="matrix(-1 0 0 1 45 95)" fill="#20262D"/>
<rect width="5" height="5" transform="matrix(-1 0 0 1 65 100)" fill="#20262D"/>
<rect width="5" height="5" transform="matrix(-1 0 0 1 65 95)" fill="#20262D"/>
<rect width="5" height="5" transform="matrix(-1 0 0 1 80 100)" fill="#20262D"/>
<rect width="5" height="5" transform="matrix(-1 0 0 1 80 95)" fill="#20262D"/>
<rect width="5" height="5" transform="matrix(-1 0 0 1 10 95)" fill="#20262D"/>
<rect width="5" height="5" transform="matrix(-1 0 0 1 30 100)" fill="#20262D"/>
<rect width="5" height="5" transform="matrix(-1 0 0 1 15 100)" fill="#20262D"/>
<rect width="5" height="5" transform="matrix(-1 0 0 1 50 100)" fill="#20262D"/>
<rect width="5" height="5" transform="matrix(-1 0 0 1 50 95)" fill="#20262D"/>
<rect width="5" height="5" transform="matrix(-1 0 0 1 70 100)" fill="#20262D"/>
<rect width="5" height="5" transform="matrix(-1 0 0 1 70 95)" fill="#20262D"/>
<rect width="5" height="5" transform="matrix(-1 0 0 1 85 100)" fill="#20262D"/>
<rect width="5" height="5" transform="matrix(-1 0 0 1 85 95)" fill="#20262D"/>
<rect width="5" height="5" transform="matrix(-1 0 0 1 90 95)" fill="#20262D"/>
<rect width="5" height="5" transform="matrix(-1 0 0 1 35 100)" fill="#20262D"/>
<rect width="5" height="5" transform="matrix(-1 0 0 1 20 100)" fill="#20262D"/>
<rect width="5" height="5" transform="matrix(-1 0 0 1 55 100)" fill="#20262D"/>
<rect width="5" height="5" transform="matrix(-1 0 0 1 55 95)" fill="#20262D"/>
<rect width="5" height="5" transform="matrix(-1 0 0 1 75 100)" fill="#20262D"/>
<rect width="5" height="5" transform="matrix(-1 0 0 1 75 95)" fill="#20262D"/>
<rect width="5" height="5" transform="matrix(-1 0 0 1 90 100)" fill="#20262D"/>
<rect width="5" height="5" transform="matrix(-1 0 0 1 95 100)" fill="#20262D"/>
<rect width="5" height="5" transform="matrix(-1 0 0 1 5 100)" fill="#20262D"/>
<rect width="5" height="5" transform="matrix(-1 0 0 1 40 100)" fill="#20262D"/>
<rect width="5" height="5" transform="matrix(-1 0 0 1 60 100)" fill="#20262D"/>
<rect width="5" height="5" transform="matrix(-1 0 0 1 60 95)" fill="#20262D"/>
<rect width="5" height="5" transform="matrix(-1 0 0 1 40 95)" fill="#20262D"/>
<rect width="5" height="5" transform="matrix(-1 0 0 1 45 90)" fill="#20262D"/>
<rect width="5" height="5" transform="matrix(-1 0 0 1 50 50)" fill="#20262D"/>
<rect width="5" height="5" transform="matrix(-1 0 0 1 55 50)" fill="#20262D"/>
</svg>
